<svg xmlns="http://www.w3.org/2000/svg" width="30" height="30" viewBox="0 0 20 20" fill="none">
  <path fill-rule="evenodd" clip-rule="evenodd" d="M12.9246 7.07525C13.0861 7.23677 13.0861 7.49865 12.9246 7.66017L10.5849 9.99986L12.9246 12.3396C13.0861 12.5011 13.0861 12.763 12.9246 12.9245C12.7631 13.086 12.5012 13.086 12.3397 12.9245L10 10.5848L7.66031 12.9245C7.49879 13.086 7.23691 13.086 7.07539 12.9245C6.91386 12.763 6.91386 12.5011 7.07539 12.3396L9.41508 9.99986L7.07539 7.66017C6.91386 7.49865 6.91386 7.23677 7.07539 7.07525C7.23691 6.91373 7.49879 6.91373 7.66031 7.07525L10 9.41494L12.3397 7.07525C12.5012 6.91373 12.7631 6.91373 12.9246 7.07525Z" fill="white"/>
</svg>